<svg width="42" height="42" viewBox="0 0 42 42" fill="none" xmlns="http://www.w3.org/2000/svg">
<path d="M21.301 12.7967C21.1423 12.9555 20.8838 12.9557 20.725 12.7967C20.4046 12.4764 19.8853 12.4764 19.5648 12.7967C19.2445 13.1171 19.2445 13.6365 19.5648 13.9569C19.9641 14.3561 20.4886 14.5557 21.0129 14.5557C21.5374 14.5557 22.0619 14.3561 22.4611 13.9569C22.7814 13.6366 22.7814 13.1171 22.4611 12.7967C22.1407 12.4763 21.6214 12.4763 21.301 12.7967Z" fill="black"/>
<path d="M39.2109 36.4219H38.0993C38.7093 35.6665 39.0756 34.7067 39.0756 33.6624C39.0756 30.8966 38.2726 28.213 36.7534 25.9019C34.1324 21.9142 29.7186 19.5336 24.9468 19.5336H24.4878V17.4156C26.6888 16.1873 28.1809 13.8351 28.1809 11.1407V7.18085C28.1809 3.22137 24.9596 0 21 0C17.0404 0 13.8191 3.22137 13.8191 7.18085V11.1407C13.8191 12.1253 14.0185 13.0641 14.3787 13.9193H2.28802C1.83504 13.9193 1.4677 14.2866 1.4677 14.7396C1.4677 15.1927 1.83504 15.5599 2.28802 15.5599H3.27132C3.05164 15.9806 2.92663 16.4582 2.92663 16.9646V18.9505L0.92482 26.9352C0.586031 28.2868 0.883312 29.6919 1.74046 30.7905C2.59752 31.8891 3.88828 32.5191 5.28166 32.5191H8.19984V36.4219H2.78906C1.25114 36.4219 0 37.673 0 39.2109C0 40.7489 1.25114 42 2.78906 42H17.3086C17.7616 42 18.1289 41.6327 18.1289 41.1797C18.1289 40.7266 17.7616 40.3594 17.3086 40.3594H2.78906C2.15578 40.3594 1.64062 39.8442 1.64062 39.2109C1.64062 38.5777 2.15578 38.0625 2.78906 38.0625H39.2109C39.8442 38.0625 40.3594 38.5777 40.3594 39.2109C40.3594 39.8442 39.8442 40.3594 39.2109 40.3594H24.6914C24.2384 40.3594 23.8711 40.7266 23.8711 41.1797C23.8711 41.6327 24.2384 42 24.6914 42H39.2109C40.7489 42 42 40.7489 42 39.2109C42 37.673 40.7489 36.4219 39.2109 36.4219ZM22.8473 19.8453C22.8473 20.8639 22.0186 21.6925 21 21.6925C19.9814 21.6925 19.1527 20.8638 19.1527 19.8453V18.0803C19.7424 18.2374 20.3615 18.3216 21 18.3216C21.6385 18.3216 22.2575 18.2374 22.8473 18.0803V19.8453ZM17.5121 19.5533C14.3899 19.7108 11.4452 20.827 9.01729 22.7599V16.9646C9.01729 16.4582 8.89227 15.9806 8.67259 15.5599H10.6993V16.2381C10.6993 17.7028 11.8908 18.8943 13.3555 18.8943C14.7996 18.8943 15.9774 17.7358 16.0103 16.2994C16.4587 16.7333 16.9634 17.1093 17.5121 17.4156V19.5533ZM21 16.6809C17.9452 16.6809 15.4598 14.1956 15.4598 11.1407V9.0373H15.6698C17.5512 9.0373 19.3831 8.53913 21.0001 7.59207C22.6171 8.53913 24.4489 9.0373 26.3304 9.0373H26.5404V11.1407C26.5402 14.1956 24.0548 16.6809 21 16.6809ZM21 1.64062C24.0548 1.64062 26.5402 4.12593 26.5402 7.18085V7.39668H26.3302C24.5922 7.39668 22.9044 6.89333 21.4491 5.94095C21.1763 5.76237 20.8236 5.76237 20.5508 5.94095C19.0956 6.89333 17.4077 7.39668 15.6697 7.39668H15.4597V7.18085C15.4598 4.12593 17.9452 1.64062 21 1.64062ZM14.3712 15.5599V16.2381C14.3712 16.7981 13.9155 17.2537 13.3555 17.2537C12.7955 17.2537 12.3399 16.7981 12.3399 16.2381V15.5599H14.3712ZM7.37674 16.9646V18.2316H4.56725V16.9646C4.56725 16.1901 5.1975 15.5599 5.97204 15.5599C6.74658 15.5599 7.37674 16.1901 7.37674 16.9646ZM21 36.4219C16.8894 36.4219 13.4968 33.2888 13.085 29.2852H28.9151C28.5032 33.2888 25.1106 36.4219 21 36.4219ZM26.3613 36.4219C27.8571 35.4108 29.0533 33.9892 29.7883 32.3203H32.8398C33.2928 32.3203 33.6601 31.9531 33.6601 31.5C33.6601 31.0469 33.2928 30.6797 32.8398 30.6797H30.3393C30.5079 29.9684 30.5977 29.2269 30.5977 28.4648C30.5977 28.0118 30.2303 27.6445 29.7773 27.6445H12.2227C11.7697 27.6445 11.4023 28.0118 11.4023 28.4648C11.4023 31.7729 13.0847 34.6954 15.6387 36.4219H9.84047V31.6988C9.84047 31.2457 9.47313 30.8785 9.02016 30.8785H5.28166C4.39729 30.8785 3.57796 30.4785 3.03393 29.7813C2.48981 29.084 2.30114 28.192 2.51623 27.3341L4.38703 19.8722H7.37674V26.0159C7.37674 26.4689 7.74408 26.8362 8.19705 26.8362C8.65003 26.8362 9.01737 26.4689 9.01737 26.0159V24.9451C11.3897 22.6294 14.4788 21.3062 17.7799 21.1845C18.3061 22.4449 19.5512 23.3331 21 23.3331C22.4528 23.3331 23.7004 22.4401 24.2241 21.1743H24.9468C29.1645 21.1743 33.0657 23.2785 35.3825 26.8031C36.7251 28.8458 37.435 31.2178 37.435 33.6625C37.435 35.184 36.1971 36.422 34.6756 36.422H26.3613V36.4219Z" fill="black"/>
<path d="M21 40.3594C20.7843 40.3594 20.5726 40.4471 20.42 40.5997C20.2675 40.7523 20.1797 40.9639 20.1797 41.1797C20.1797 41.3954 20.2674 41.6071 20.42 41.7596C20.5727 41.9122 20.7843 42 21 42C21.2157 42 21.4274 41.9122 21.5799 41.7596C21.7325 41.6071 21.8203 41.3954 21.8203 41.1797C21.8203 40.9639 21.7325 40.7523 21.5799 40.5997C21.4274 40.4471 21.2157 40.3594 21 40.3594Z" fill="black"/>
</svg>
