<svg width="33" height="38" viewBox="0 0 33 38" fill="none" xmlns="http://www.w3.org/2000/svg">
<path d="M16.3463 25.492C16.3463 30.0754 20.0817 33.8043 24.6731 33.8043C29.2646 33.8043 33 30.0754 33 25.492C33 22.5039 31.4122 19.8796 29.0348 18.4142V7.99665C29.0348 7.79003 28.9352 7.60708 28.7818 7.49142C20.8993 -0.377294 21.4093 0.0667404 21.1396 0.0133835C21.0453 -0.00529928 22.041 0.00103388 2.53771 0.00103388C1.1384 0.00103388 0 1.13744 0 2.5343V35.4667C0 36.8636 1.1384 38 2.53771 38H26.4874C27.8867 38 29.0251 36.8636 29.0251 35.4667C29.0251 35.117 28.741 34.8334 28.3906 34.8334C28.0403 34.8334 27.7562 35.117 27.7562 35.4667C27.7562 36.1651 27.187 36.7334 26.4874 36.7334H2.53771C1.8381 36.7334 1.26886 36.1651 1.26886 35.4667V2.5343C1.26886 1.83591 1.8381 1.26767 2.53771 1.26767H20.381V6.0967C20.381 7.49356 21.5194 8.62997 22.9187 8.62997H27.766V17.7747C26.7316 17.3601 25.6077 17.1507 24.4352 17.1834V12.6674C24.4352 11.6199 23.5814 10.7675 22.5319 10.7675H6.51264C5.46314 10.7675 4.60936 11.6199 4.60936 12.6674V20.7422C4.60936 21.7898 5.46314 22.6422 6.51264 22.6422H14.8395C15.1899 22.6422 15.4739 22.3586 15.4739 22.0088C15.4739 21.6591 15.1899 21.3755 14.8395 21.3755H11.9846V17.3381H17.6944C18.0448 17.3381 18.3289 17.0546 18.3289 16.7048V12.0341H22.5319C22.8818 12.0341 23.1664 12.3182 23.1664 12.6674V17.3165C19.2918 18.0263 16.3463 21.4221 16.3463 25.492ZM22.9187 7.36333C22.2191 7.36333 21.6499 6.79509 21.6499 6.0967V2.16333L26.8591 7.36341L22.9187 7.36333ZM6.51264 12.034H10.7157V16.0714H5.87821V12.6674C5.87821 12.3182 6.16283 12.034 6.51264 12.034ZM10.7157 21.3755H6.51264C6.16283 21.3755 5.87821 21.0913 5.87821 20.7421V17.3381H10.7157V21.3755ZM17.06 16.0714H11.9846V12.034H17.06V16.0714ZM31.7311 25.492C31.7311 29.377 28.565 32.5376 24.6731 32.5376C20.7813 32.5376 17.6151 29.377 17.6151 25.492C17.6151 21.607 20.7813 18.4464 24.6731 18.4464C28.565 18.4464 31.7311 21.607 31.7311 25.492ZM25.3076 27.0753V26.819C25.3076 26.5405 25.1287 26.2977 24.8624 26.2145L24.1055 25.9785C23.3066 25.7293 22.7699 25.0005 22.7699 24.1651V23.9088C22.7699 23.0832 23.3003 22.3793 24.0387 22.1178V21.8505C24.0387 21.5008 24.3228 21.2172 24.6731 21.2172C25.0235 21.2172 25.3076 21.5008 25.3076 21.8505V22.1178C26.046 22.3793 26.5764 23.0832 26.5764 23.9088C26.5764 24.2585 26.2924 24.5421 25.942 24.5421C25.5916 24.5421 25.3076 24.2585 25.3076 23.9088C25.3076 23.5596 25.0229 23.2755 24.6731 23.2755C24.3233 23.2755 24.0387 23.5596 24.0387 23.9088V24.1651C24.0387 24.4436 24.2176 24.6864 24.4839 24.7696L25.2408 25.0056C26.0397 25.2548 26.5764 25.9836 26.5764 26.819V27.0753C26.5764 27.9872 25.9294 28.7508 25.0697 28.9334V29.1336C25.0697 29.4833 24.7856 29.7669 24.4352 29.7669C24.0849 29.7669 23.8008 29.4833 23.8008 29.1336V28.7631C23.1891 28.4467 22.7699 27.8092 22.7699 27.0753C22.7699 26.7255 23.0539 26.442 23.4043 26.442C23.7546 26.442 24.0387 26.7255 24.0387 27.0753C24.0387 27.4245 24.3233 27.7086 24.6731 27.7086C25.0229 27.7086 25.3076 27.4245 25.3076 27.0753ZM4.60936 26.1253C4.60936 25.7756 4.89342 25.492 5.24378 25.492H11.4295C11.7798 25.492 12.0639 25.7756 12.0639 26.1253C12.0639 26.4751 11.7798 26.7586 11.4295 26.7586H5.24378C4.89342 26.7586 4.60936 26.4751 4.60936 26.1253ZM4.60936 30.8752C4.60936 30.5254 4.89342 30.2419 5.24378 30.2419H13.0155C13.3659 30.2419 13.65 30.5254 13.65 30.8752C13.65 31.2249 13.3659 31.5085 13.0155 31.5085H5.24378C4.89342 31.5085 4.60936 31.2249 4.60936 30.8752Z" fill="black"/>
</svg>
