<svg width="42" height="42" viewBox="0 0 42 42" fill="none" xmlns="http://www.w3.org/2000/svg">
<path d="M38.3906 26.25C38.1937 25.9875 37.9969 25.725 37.7344 25.5281L38.2594 25.2C39.5062 24.4125 39.8344 22.8375 39.1125 21.5906L38.3906 20.475C38.1937 20.2125 37.9969 19.95 37.7344 19.7531L38.2594 19.425C39.5062 18.6375 39.8344 17.0625 39.1125 15.8156L38.3906 14.7C38.2594 14.4375 38.0625 14.2406 37.8 14.0437L37.9969 13.9125C38.85 13.3875 39.2437 12.4688 39.2437 11.4844C39.2437 11.0906 39.1125 10.6969 38.85 10.3031L38.1281 9.1875C37.6031 8.33438 36.6844 7.875 35.7 7.94063C35.6344 7.94063 35.5688 7.94063 35.5688 7.94063V6.49687C35.5688 4.9875 34.3875 3.9375 32.8781 3.9375H18.1125C17.3906 3.9375 16.5375 4.06875 16.0781 4.59375C15.5531 5.11875 15.0938 5.64375 15.0938 6.36562V10.8281C15.0938 10.9594 14.4375 11.0906 13.9781 11.3531C12.4031 12.075 11.2219 13.1906 10.3688 14.6344C9.84375 15.4219 9.51562 16.275 9.31875 17.2594C9.1875 17.1281 9.05625 17.0625 8.925 17.0625H3.4125C2.29687 17.0625 1.3125 18.1125 1.3125 19.1625V35.7656C1.3125 36.8156 2.29687 37.4062 3.4125 37.4062H8.925C9.90938 37.4062 10.6969 36.6844 10.8281 35.7656C11.6812 35.9625 12.4031 36.0938 13.125 36.0938H13.1906C14.0438 36.0938 14.7656 36.0938 15.4219 35.7656C15.4875 35.7 15.6187 35.7656 15.6844 35.7C15.9469 36.1594 16.3406 36.6844 16.8656 37.0125C17.2594 37.2094 17.6531 37.4062 18.1781 37.4062H32.8781C34.3875 37.4062 35.4375 36.0281 35.4375 34.5844V32.7469L38.1938 31.0406C39.0469 30.5156 39.5062 29.5969 39.4406 28.6125C39.4406 28.2187 39.3094 27.825 39.0469 27.4312L38.3906 26.25ZM3.28125 19.1625C3.28125 19.0313 3.28125 19.0312 3.4125 19.0312H8.925C9.05625 19.0312 9.1875 19.0313 9.1875 19.1625V35.7656C9.1875 35.8969 9.05625 36.0938 8.925 36.0938H3.4125C3.28125 36.0938 3.28125 35.8969 3.28125 35.7656V19.1625ZM11.1562 19.6875V19.2937C11.1562 16.4719 12.5344 14.1094 15.0281 12.9281L15.225 12.7969C15.6844 12.6 16.0781 12.4687 16.4719 12.4031C17.2594 12.2719 17.85 12.4688 18.2437 12.9281C18.6375 13.5188 18.6375 14.3062 18.4406 14.6344C18.1781 15.225 18.0469 15.4875 17.0625 16.275C15.6187 17.3906 14.9625 18.9656 15.2906 20.6062C15.4875 21.7875 16.0781 22.6406 16.1438 22.7062C17.5875 24.7406 17.9156 27.1031 17.1938 29.8594C16.6031 31.9594 15.6187 33.4687 15.6187 33.5344L15.5531 33.6656C15.4875 33.7312 15.4219 34.0594 14.8969 34.3219C14.2406 34.65 13.1906 34.8469 11.2219 34.2563V19.6875H11.1562ZM18.1125 5.25H32.8125C33.2063 5.25 33.5344 5.90625 33.7313 5.90625H17.1938C17.3906 5.90625 17.7188 5.25 18.1125 5.25ZM34.125 7.875V8.79375L31.1063 10.5656C30.2531 11.0906 29.7281 12.0094 29.7938 12.9937C29.7938 13.3875 29.925 13.7813 30.1875 14.175L30.8438 15.2906C30.975 15.5531 31.1719 15.75 31.4344 15.9469L31.2375 16.0781C30.3844 16.6031 29.925 17.5219 29.9906 18.5063C29.9906 18.9 30.1219 19.2937 30.3844 19.6875L31.1063 20.8031C31.3031 21.0656 31.5 21.3281 31.7625 21.525L31.2375 21.8531C30.3844 22.3781 29.9906 23.2969 29.9906 24.2812C29.9906 24.675 30.1219 25.0687 30.3844 25.4625L31.1063 26.5781C31.3031 26.8406 31.5 27.1031 31.7625 27.3L31.2375 27.6281C30.3844 28.1531 29.9906 29.0719 29.9906 30.0562C29.9906 30.45 30.1219 30.8437 30.3844 31.2375L31.1063 32.4844C31.3031 32.7469 31.5 32.6812 31.7625 33.3375H17.7844C18.1125 32.025 18.5719 31.5 18.8344 30.3844C19.2281 28.9406 19.3594 27.4969 19.2281 26.1844C19.1625 25.2 18.8344 24.2156 18.3094 23.1656L17.5875 21.6562L17.5219 21.525C17.5219 21.525 17.0625 20.9344 16.9312 20.1469C16.7344 19.0969 17.1281 18.2438 18.0469 17.5219C19.2281 16.6031 19.5562 16.0781 19.95 15.2906C20.4094 14.4375 20.4094 12.9281 19.6219 11.7469C19.2937 11.2219 18.7688 10.8937 18.1781 10.6969C17.85 10.5656 17.7188 10.5 17.0625 10.5V7.875H34.125ZM36.6187 10.1062L37.3406 11.2219C37.4719 11.4188 37.4719 11.6813 37.4719 11.8781C37.4062 12.075 37.275 12.2719 37.0781 12.4031L34.9781 13.7156C34.9125 13.7812 34.8469 13.7813 34.7812 13.8469L33.4688 14.7C33.2719 14.7656 33.075 14.8313 32.8781 14.7656C32.6812 14.7 32.4844 14.5687 32.3531 14.3719L31.6313 13.2563C31.5 13.0594 31.5 12.7969 31.5 12.6C31.5656 12.4031 31.6969 12.2062 31.8937 12.075L35.4375 9.84375C35.6344 9.7125 35.8312 9.7125 36.0938 9.7125C36.3563 9.77813 36.4875 9.90937 36.6187 10.1062ZM36.1594 15.225C36.225 15.225 36.2906 15.225 36.3563 15.225C36.5531 15.2906 36.75 15.4219 36.8813 15.6187L37.6031 16.7344C37.8656 17.1281 37.7344 17.6531 37.3406 17.9156L33.7313 20.1469C33.5344 20.2781 33.3375 20.2781 33.075 20.2781C32.8781 20.2125 32.6812 20.0812 32.55 19.8844L31.8281 18.7688C31.6969 18.5719 31.6969 18.3094 31.6969 18.1125C31.7625 17.9156 31.8938 17.7187 32.0906 17.5875L34.1906 16.275C34.2562 16.2094 34.3219 16.2094 34.3875 16.1438L35.7656 15.2906C35.8969 15.225 36.0281 15.225 36.1594 15.225ZM33.7313 25.9875C33.5344 26.1187 33.3375 26.1187 33.075 26.1187C32.8781 26.0531 32.6812 25.9219 32.55 25.725L31.8281 24.6094C31.6969 24.4125 31.6969 24.15 31.6969 23.9531C31.7625 23.7562 31.8938 23.5594 32.0906 23.4281L35.7 21.1969C35.8969 21.0656 36.0938 21.0656 36.3563 21.0656C36.5531 21.1312 36.75 21.2625 36.8813 21.4594L37.6031 22.575C37.8656 22.9688 37.7344 23.4938 37.3406 23.7563L33.7313 25.9875ZM33.7313 34.7812C33.6 35.4375 33.2719 35.4375 32.8125 35.4375H18.1125C17.7188 35.4375 17.3906 35.4375 17.1938 34.7812H33.7313ZM33.7313 31.7625C33.5344 31.8938 33.3375 31.8937 33.075 31.8937C32.8781 31.8281 32.6812 31.6969 32.55 31.5L31.8281 30.3844C31.6969 30.1875 31.6969 29.925 31.6969 29.7281C31.7625 29.5312 31.8938 29.3344 32.0906 29.2031L35.7 26.9719C35.8313 26.9062 36.0281 26.8406 36.1594 26.8406C36.225 26.8406 36.2906 26.8406 36.3563 26.8406C36.5531 26.9063 36.75 27.0375 36.8813 27.2344L37.6031 28.35C37.7344 28.5469 37.7344 28.8094 37.7344 29.0063C37.6687 29.2031 37.5375 29.4 37.3406 29.5312L33.7313 31.7625Z" fill="black"/>
<path d="M6.10311 34.9125C6.23436 34.9125 6.36561 34.9125 6.49686 34.8469C7.08748 34.7156 7.54686 34.1906 7.74373 33.6C7.87498 33.0094 7.74373 32.4187 7.28436 31.9594C6.89061 31.5656 6.23436 31.3687 5.64373 31.5C5.11873 31.6969 4.59373 32.1562 4.46248 32.8125C4.33123 33.4031 4.46248 33.9937 4.92186 34.4531C5.24998 34.7156 5.64373 34.9125 6.10311 34.9125ZM5.51248 33.2062C5.51248 32.8781 5.77498 32.6156 6.10311 32.6156C6.43123 32.6156 6.69373 32.8781 6.69373 33.2062C6.69373 33.5344 6.43123 33.7969 6.10311 33.7969C5.77498 33.7969 5.51248 33.5344 5.51248 33.2062Z" fill="black"/>
<rect x="28.2979" y="11.0547" width="6" height="1" transform="rotate(132.637 28.2979 11.0547)" fill="black"/>
<rect x="22.6822" y="12.6666" width="3.02224" height="1" transform="rotate(42.8339 22.6822 12.6666)" fill="black"/>
<rect x="28.2979" y="18.0547" width="6" height="1" transform="rotate(132.637 28.2979 18.0547)" fill="black"/>
<rect x="22.6822" y="19.6666" width="3.02224" height="1" transform="rotate(42.8339 22.6822 19.6666)" fill="black"/>
<rect x="28.2979" y="25.0547" width="6" height="1" transform="rotate(132.637 28.2979 25.0547)" fill="black"/>
<rect x="22.6822" y="26.6666" width="3.02224" height="1" transform="rotate(42.8339 22.6822 26.6666)" fill="black"/>
</svg>
