<svg width="39" height="35" viewBox="0 0 39 35" fill="none" xmlns="http://www.w3.org/2000/svg">
<path d="M37.3906 23.25C37.1937 22.9875 36.9969 22.725 36.7344 22.5281L37.2594 22.2C38.5062 21.4125 38.8344 19.8375 38.1125 18.5906L37.3906 17.475C37.1937 17.2125 36.9969 16.95 36.7344 16.7531L37.2594 16.425C38.5062 15.6375 38.8344 14.0625 38.1125 12.8156L37.3906 11.7C37.2594 11.4375 37.0625 11.2406 36.8 11.0437L36.9969 10.9125C37.85 10.3875 38.2437 9.46875 38.2437 8.48438C38.2437 8.09062 38.1125 7.69687 37.85 7.30312L37.1281 6.1875C36.6031 5.33438 35.6844 4.875 34.7 4.94063C34.6344 4.94063 34.5688 4.94063 34.5688 4.94063V3.49687C34.5688 1.9875 33.3875 0.9375 31.8781 0.9375H17.1125C16.3906 0.9375 15.5375 1.06875 15.0781 1.59375C14.5531 2.11875 14.0938 2.64375 14.0938 3.36562V7.82812C14.0938 7.95938 13.4375 8.09062 12.9781 8.35312C11.4031 9.075 10.2219 10.1906 9.36875 11.6344C8.84375 12.4219 8.51562 13.275 8.31875 14.2594C8.1875 14.1281 8.05625 14.0625 7.925 14.0625H2.4125C1.29687 14.0625 0.3125 15.1125 0.3125 16.1625V32.7656C0.3125 33.8156 1.29687 34.4062 2.4125 34.4062H7.925C8.90938 34.4062 9.69687 33.6844 9.82812 32.7656C10.6812 32.9625 11.4031 33.0938 12.125 33.0938H12.1906C13.0438 33.0938 13.7656 33.0938 14.4219 32.7656C14.4875 32.7 14.6187 32.7656 14.6844 32.7C14.9469 33.1594 15.3406 33.6844 15.8656 34.0125C16.2594 34.2094 16.6531 34.4062 17.1781 34.4062H31.8781C33.3875 34.4062 34.4375 33.0281 34.4375 31.5844V29.7469L37.1938 28.0406C38.0469 27.5156 38.5062 26.5969 38.4406 25.6125C38.4406 25.2187 38.3094 24.825 38.0469 24.4312L37.3906 23.25ZM2.28125 16.1625C2.28125 16.0313 2.28125 16.0312 2.4125 16.0312H7.925C8.05625 16.0312 8.1875 16.0313 8.1875 16.1625V32.7656C8.1875 32.8969 8.05625 33.0938 7.925 33.0938H2.4125C2.28125 33.0938 2.28125 32.8969 2.28125 32.7656V16.1625ZM10.1562 16.6875V16.2937C10.1562 13.4719 11.5344 11.1094 14.0281 9.92813L14.225 9.79688C14.6844 9.6 15.0781 9.46875 15.4719 9.40312C16.2594 9.27187 16.85 9.46875 17.2437 9.92813C17.6375 10.5188 17.6375 11.3062 17.4406 11.6344C17.1781 12.225 17.0469 12.4875 16.0625 13.275C14.6187 14.3906 13.9625 15.9656 14.2906 17.6062C14.4875 18.7875 15.0781 19.6406 15.1438 19.7062C16.5875 21.7406 16.9156 24.1031 16.1938 26.8594C15.6031 28.9594 14.6187 30.4687 14.6187 30.5344L14.5531 30.6656C14.4875 30.7312 14.4219 31.0594 13.8969 31.3219C13.2406 31.65 12.1906 31.8469 10.2219 31.2563V16.6875H10.1562ZM17.1125 2.25H31.8125C32.2063 2.25 32.5344 2.90625 32.7313 2.90625H16.1938C16.3906 2.90625 16.7188 2.25 17.1125 2.25ZM33.125 4.875V5.79375L30.1063 7.56563C29.2531 8.09063 28.7281 9.00937 28.7938 9.99375C28.7938 10.3875 28.925 10.7813 29.1875 11.175L29.8438 12.2906C29.975 12.5531 30.1719 12.75 30.4344 12.9469L30.2375 13.0781C29.3844 13.6031 28.925 14.5219 28.9906 15.5063C28.9906 15.9 29.1219 16.2937 29.3844 16.6875L30.1063 17.8031C30.3031 18.0656 30.5 18.3281 30.7625 18.525L30.2375 18.8531C29.3844 19.3781 28.9906 20.2969 28.9906 21.2812C28.9906 21.675 29.1219 22.0687 29.3844 22.4625L30.1063 23.5781C30.3031 23.8406 30.5 24.1031 30.7625 24.3L30.2375 24.6281C29.3844 25.1531 28.9906 26.0719 28.9906 27.0562C28.9906 27.45 29.1219 27.8437 29.3844 28.2375L30.1063 29.4844C30.3031 29.7469 30.5 29.6812 30.7625 30.3375H16.7844C17.1125 29.025 17.5719 28.5 17.8344 27.3844C18.2281 25.9406 18.3594 24.4969 18.2281 23.1844C18.1625 22.2 17.8344 21.2156 17.3094 20.1656L16.5875 18.6562L16.5219 18.525C16.5219 18.525 16.0625 17.9344 15.9312 17.1469C15.7344 16.0969 16.1281 15.2438 17.0469 14.5219C18.2281 13.6031 18.5562 13.0781 18.95 12.2906C19.4094 11.4375 19.4094 9.92812 18.6219 8.74687C18.2937 8.22187 17.7688 7.89375 17.1781 7.69687C16.85 7.56562 16.7188 7.5 16.0625 7.5V4.875H33.125ZM35.6187 7.10625L36.3406 8.22188C36.4719 8.41875 36.4719 8.68125 36.4719 8.87813C36.4062 9.075 36.275 9.27187 36.0781 9.40312L33.9781 10.7156C33.9125 10.7812 33.8469 10.7813 33.7812 10.8469L32.4688 11.7C32.2719 11.7656 32.075 11.8313 31.8781 11.7656C31.6812 11.7 31.4844 11.5687 31.3531 11.3719L30.6313 10.2563C30.5 10.0594 30.5 9.79688 30.5 9.6C30.5656 9.40313 30.6969 9.20625 30.8937 9.075L34.4375 6.84375C34.6344 6.7125 34.8312 6.7125 35.0938 6.7125C35.3563 6.77813 35.4875 6.90937 35.6187 7.10625ZM35.1594 12.225C35.225 12.225 35.2906 12.225 35.3563 12.225C35.5531 12.2906 35.75 12.4219 35.8813 12.6187L36.6031 13.7344C36.8656 14.1281 36.7344 14.6531 36.3406 14.9156L32.7313 17.1469C32.5344 17.2781 32.3375 17.2781 32.075 17.2781C31.8781 17.2125 31.6812 17.0812 31.55 16.8844L30.8281 15.7688C30.6969 15.5719 30.6969 15.3094 30.6969 15.1125C30.7625 14.9156 30.8938 14.7187 31.0906 14.5875L33.1906 13.275C33.2562 13.2094 33.3219 13.2094 33.3875 13.1438L34.7656 12.2906C34.8969 12.225 35.0281 12.225 35.1594 12.225ZM32.7313 22.9875C32.5344 23.1187 32.3375 23.1187 32.075 23.1187C31.8781 23.0531 31.6812 22.9219 31.55 22.725L30.8281 21.6094C30.6969 21.4125 30.6969 21.15 30.6969 20.9531C30.7625 20.7562 30.8938 20.5594 31.0906 20.4281L34.7 18.1969C34.8969 18.0656 35.0938 18.0656 35.3563 18.0656C35.5531 18.1312 35.75 18.2625 35.8813 18.4594L36.6031 19.575C36.8656 19.9688 36.7344 20.4938 36.3406 20.7563L32.7313 22.9875ZM32.7313 31.7812C32.6 32.4375 32.2719 32.4375 31.8125 32.4375H17.1125C16.7188 32.4375 16.3906 32.4375 16.1938 31.7812H32.7313ZM32.7313 28.7625C32.5344 28.8938 32.3375 28.8937 32.075 28.8937C31.8781 28.8281 31.6812 28.6969 31.55 28.5L30.8281 27.3844C30.6969 27.1875 30.6969 26.925 30.6969 26.7281C30.7625 26.5312 30.8938 26.3344 31.0906 26.2031L34.7 23.9719C34.8313 23.9062 35.0281 23.8406 35.1594 23.8406C35.225 23.8406 35.2906 23.8406 35.3563 23.8406C35.5531 23.9063 35.75 24.0375 35.8813 24.2344L36.6031 25.35C36.7344 25.5469 36.7344 25.8094 36.7344 26.0063C36.6687 26.2031 36.5375 26.4 36.3406 26.5312L32.7313 28.7625Z" fill="black"/>
<path d="M5.10311 31.9125C5.23436 31.9125 5.36561 31.9125 5.49686 31.8469C6.08748 31.7156 6.54686 31.1906 6.74373 30.6C6.87498 30.0094 6.74373 29.4187 6.28436 28.9594C5.89061 28.5656 5.23436 28.3687 4.64373 28.5C4.11873 28.6969 3.59373 29.1562 3.46248 29.8125C3.33123 30.4031 3.46248 30.9937 3.92186 31.4531C4.24998 31.7156 4.64373 31.9125 5.10311 31.9125ZM4.51248 30.2062C4.51248 29.8781 4.77498 29.6156 5.10311 29.6156C5.43123 29.6156 5.69373 29.8781 5.69373 30.2062C5.69373 30.5344 5.43123 30.7969 5.10311 30.7969C4.77498 30.7969 4.51248 30.5344 4.51248 30.2062Z" fill="black"/>
</svg>
