<svg width="41" height="41" viewBox="0 0 41 41" fill="none" xmlns="http://www.w3.org/2000/svg">
<path d="M39.4872 16.6864C39.4271 16.2052 39.2676 15.7417 39.0189 15.3254C38.7703 14.909 38.4378 14.5489 38.0427 14.2678C37.6475 13.9867 37.1982 13.7907 36.7234 13.6923C36.2485 13.594 35.7584 13.5953 35.2841 13.6963L36.212 12.0724C36.6955 11.2263 37.0014 10.2905 37.1108 9.32215C37.2203 8.35383 37.1311 7.37334 36.8487 6.44066C36.5664 5.50797 36.0967 4.64269 35.4685 3.89771C34.8403 3.15274 34.0667 2.54372 33.1951 2.10792C31.8641 1.44754 30.3741 1.17498 28.8955 1.32138C27.4169 1.46779 26.0093 2.02726 24.8336 2.93583C23.3309 4.10683 22.1371 5.62739 21.3562 7.36515L18.1702 14.4723L19.3394 14.9964L22.5253 7.88926C23.2203 6.34264 24.2828 4.98933 25.6203 3.94713C26.6048 3.18638 27.7835 2.71794 29.0217 2.59535C30.2598 2.47276 31.5075 2.70096 32.6221 3.25388C33.3378 3.61176 33.9731 4.11188 34.489 4.72365C35.0049 5.33542 35.3906 6.04599 35.6225 6.81191C35.8544 7.57783 35.9276 8.383 35.8377 9.17819C35.7478 9.97339 35.4967 10.7419 35.0996 11.4367L33.3969 14.4166C33.3337 14.5271 33.3049 14.654 33.3142 14.7811C33.3234 14.9081 33.3704 15.0295 33.449 15.1297C33.5275 15.2299 33.6342 15.3044 33.7554 15.3437C33.8765 15.383 34.0066 15.3854 34.1291 15.3504L35.4035 14.9863C35.9179 14.8393 36.4681 14.883 36.9528 15.1095C37.4375 15.3359 37.8241 15.7298 38.0415 16.2186C38.2589 16.7074 38.2924 17.2584 38.1359 17.7699C37.9794 18.2815 37.6434 18.7194 37.1897 19.0029L28.7869 24.2546L28.5264 24.1301L28.2526 24.7028L26.6017 28.0048L22.5904 26.3158L22.0932 27.4967L26.6576 29.4185C26.8075 29.4818 26.9759 29.4856 27.1285 29.4292C27.2811 29.3727 27.4065 29.2603 27.4792 29.1147L29.3205 25.4321L37.8688 20.0894C38.434 19.7346 38.8864 19.226 39.173 18.6233C39.4596 18.0206 39.5686 17.3487 39.4872 16.6864Z" fill="black"/>
<path d="M36.1713 17.3734L27.9376 22.5192L28.6166 23.6058L36.8507 18.4597C37.1748 18.2587 37.4151 17.9471 37.5272 17.5826C37.6394 17.2181 37.6158 16.8254 37.4608 16.4769C37.3058 16.1285 37.0299 15.848 36.6841 15.6872C36.3383 15.5264 35.946 15.4962 35.5797 15.6023L31.2796 16.8308L34.5439 11.1186C34.8976 10.4993 35.1213 9.8144 35.2013 9.10574C35.2813 8.39707 35.2159 7.67954 35.0091 6.99701C34.8024 6.31447 34.4586 5.68126 33.9989 5.13609C33.5391 4.59093 32.973 4.14525 32.3351 3.82631C31.3296 3.32361 30.2024 3.11568 29.0837 3.22653C27.965 3.33739 26.9005 3.76252 26.0132 4.45279C24.7587 5.43076 23.762 6.70027 23.1097 8.151L19.9889 15.113L21.158 15.6371L24.2788 8.67534C24.8451 7.41565 25.7105 6.31333 26.7998 5.46416C27.4962 4.9223 28.3318 4.58857 29.2099 4.50154C30.088 4.41452 30.9728 4.57774 31.7621 4.97235C32.2442 5.21336 32.672 5.55015 33.0194 5.96212C33.3669 6.3741 33.6267 6.8526 33.7829 7.36839C33.9392 7.88418 33.9886 8.42641 33.9281 8.96195C33.8677 9.49748 33.6986 10.0151 33.4314 10.483L29.3866 17.5612C29.3234 17.6718 29.2946 17.7987 29.3039 17.9257C29.3132 18.0527 29.3601 18.1741 29.4387 18.2743C29.5173 18.3745 29.6239 18.4491 29.7451 18.4884C29.8662 18.5277 29.9963 18.53 30.1188 18.495L35.9327 16.8339C35.96 16.8259 35.9883 16.8216 36.0167 16.8213C36.0886 16.8227 36.1577 16.8498 36.2113 16.8978C36.2649 16.9457 36.2996 17.0112 36.3091 17.0825C36.3155 17.139 36.3061 17.1962 36.2817 17.2477C36.2574 17.2991 36.2191 17.3426 36.1713 17.3734Z" fill="black"/>
<path d="M24.0729 23.4246L24.6251 22.269L25.597 22.7334L25.0448 23.8891L24.0729 23.4246Z" fill="black"/>
<path d="M26.0168 24.3552L26.569 23.1996L27.541 23.664L26.9888 24.8197L26.0168 24.3552Z" fill="black"/>
<path d="M20.52 30.0897L22.6631 20.4455C22.8426 19.6378 22.734 18.7927 22.356 18.0567C21.9781 17.3207 21.3546 16.74 20.5936 16.4152C19.8325 16.0905 18.9819 16.0421 18.189 16.2785C17.3961 16.5149 16.7108 17.0211 16.2518 17.7095L16.251 17.7107L15.8888 16.4428C15.5049 15.1026 14.7867 13.8819 13.8015 12.8956C12.584 11.6797 10.9709 10.9407 9.25509 10.8127C7.53924 10.6847 5.83435 11.1761 4.44989 12.1977L4.39762 12.1689L4.33231 12.2873C3.54866 12.8906 2.89842 13.6497 2.42253 14.5167C1.94664 15.3837 1.65542 16.3399 1.5672 17.325C1.37476 19.4728 1.67071 21.6363 2.43289 23.6535L8.36974 39.3053C8.42949 39.4633 8.54926 39.5912 8.70294 39.6613C8.85662 39.7313 9.03175 39.7378 9.19018 39.6793L21.3621 35.1949C21.5137 35.139 21.6387 35.0279 21.7118 34.8838C21.785 34.7397 21.801 34.5732 21.7566 34.4178L20.52 30.0897ZM20.1236 25.9669L19.0691 25.3852L20.3366 22.4267L20.3368 22.4263L20.8478 22.7083L20.1236 25.9669ZM21.462 19.8014C21.4554 19.9246 21.4388 20.0471 21.4124 20.1676L21.1375 21.4047L20.8443 21.243L21.462 19.8014ZM16.9174 19.0209L17.3178 18.4202C17.4941 18.1559 17.724 17.9316 17.9926 17.7619C18.2612 17.5922 18.5625 17.481 18.8769 17.4354C19.1914 17.3898 19.5119 17.4109 19.8176 17.4972C20.1234 17.5836 20.4075 17.7334 20.6516 17.9368C20.7058 17.982 20.7566 18.0301 20.8058 18.0794L19.7168 20.6209H19.7168L16.8981 19.0658L16.9174 19.0209ZM16.3911 20.2494L19.2092 21.8042L19.2091 21.8045L17.9416 24.7631L15.1229 23.2079L16.3911 20.2494ZM8.89454 26.3567L8.89505 26.3569L11.713 27.912L10.4446 30.8701L7.62665 29.315L8.89454 26.3567ZM8.2744 24.5511L5.45589 22.9961L6.72393 20.0374L9.54242 21.5924L8.2744 24.5511ZM9.40194 25.1733L9.40172 25.1732L10.6698 22.2144L13.4881 23.7693L12.2199 26.7285L9.40194 25.1733ZM14.6156 24.3914L17.4344 25.9466L16.1661 28.905L13.3474 27.3499L14.6156 24.3914ZM13.9953 22.5858L11.177 21.0309L12.445 18.0722L15.2636 19.6273L13.9953 22.5858ZM13.7978 14.9157C14.1764 15.4956 14.4659 16.129 14.6568 16.7947L15.0076 18.0227L12.9522 16.8887L13.7978 14.9157ZM10.0715 12.2265C11.1366 12.4771 12.1109 13.0191 12.8855 13.792L11.8249 16.2667L9.00638 14.7117L10.0715 12.2265ZM11.3176 17.4502L10.0496 20.4089L7.23115 18.8539L8.49915 15.8952L11.3176 17.4502ZM6.45142 12.5268C7.17273 12.2253 7.94667 12.0698 8.72845 12.0694C8.73386 12.0694 8.73925 12.0698 8.74466 12.0698L7.87901 14.0897L5.71466 12.8956C5.95143 12.7557 6.1976 12.6325 6.45142 12.5268V12.5268ZM4.6023 13.7452L7.37178 15.2732L6.10378 18.2319L3.00128 16.5202C3.26788 15.4648 3.82212 14.5042 4.6023 13.7452ZM3.7924 23.6251L3.75228 23.5193L3.8213 23.5574L3.8214 23.5574L3.7924 23.6251ZM4.32819 22.3738L3.17539 21.7375C2.86257 20.4767 2.74005 19.1761 2.81187 17.879L5.59656 19.4154L4.32857 22.374L4.32819 22.3738ZM6.49911 28.6928L5.50713 28.1457L4.44688 25.3505L4.94872 24.1796L4.9488 24.1796L7.76722 25.7345L6.49933 28.6929L6.49911 28.6928ZM9.34268 38.2576L9.02822 37.4286L9.28984 36.8183L10.8753 37.693L9.34268 38.2576ZM14.3415 36.416L15.0114 34.8532L16.4416 35.6422L14.3415 36.416ZM18.0321 35.0563L15.5183 33.6696L15.821 32.9626L14.8713 33.3125L14.1658 33.5728L13.2809 33.8987L13.8839 34.231L12.6857 37.026L12.4655 37.1071L9.79673 35.6348L10.0273 35.0966L9.30504 35.3633L8.37476 35.7059L6.73756 31.3896L7.11949 30.4984L7.11971 30.4985L9.93766 32.0537L9.76149 32.4645L10.3132 32.2611L11.4175 31.8543L11.9036 31.6749L11.5721 31.4923L12.8405 28.5334L15.6584 30.0886L15.5559 30.3296L15.8795 30.2103L17.2112 29.7194L17.4698 29.6249L17.2936 29.5272L18.5619 26.5687L19.834 27.2705L19.3098 29.6291L19.0367 29.7297L19.25 30.3084L19.6095 31.5669L18.8472 31.8479L19.8476 32.4L20.3613 34.1981L18.0321 35.0563Z" fill="black"/>
<path d="M10.797 32.7532L11.8273 32.3731L12.2706 33.5749L11.2403 33.955L10.797 32.7532Z" fill="black"/>
<path d="M8.73648 33.5129L9.76681 33.1328L10.2101 34.3346L9.17979 34.7147L8.73648 33.5129Z" fill="black"/>
<path d="M16.9785 30.4736L18.0088 30.0935L18.4522 31.2953L17.4218 31.6754L16.9785 30.4736Z" fill="black"/>
<path d="M12.8575 31.9933L13.8878 31.6132L14.3311 32.8151L13.3008 33.1951L12.8575 31.9933Z" fill="black"/>
<path d="M14.918 31.2334L15.9483 30.8534L16.3916 32.0552L15.3613 32.4353L14.918 31.2334Z" fill="black"/>
</svg>
