<svg width="42" height="42" viewBox="0 0 42 42" fill="none" xmlns="http://www.w3.org/2000/svg">
<path d="M34.7958 39.4927C35.0332 38.9685 35.1665 38.3876 35.1665 37.7757C35.1665 36.7499 34.5676 35.6482 33.3355 34.4077C32.5392 33.6061 31.7481 33.0254 31.7148 33.001L30.9889 32.4706L30.2631 33.001C30.2298 33.0254 29.4386 33.606 28.6424 34.4077C27.4104 35.6482 26.8114 36.7499 26.8114 37.7757C26.8114 38.3876 26.9447 38.9685 27.1821 39.4927H24.8035C25.0408 38.9685 25.1741 38.3876 25.1741 37.7757C25.1741 36.7499 24.5752 35.6482 23.3431 34.4077C22.5469 33.6061 21.7557 33.0254 21.7224 33.001L20.9967 32.4707L20.2708 33.0011C20.2375 33.0255 19.4464 33.6061 18.6501 34.4078C17.4181 35.6483 16.8191 36.75 16.8191 37.7758C16.8191 38.3876 16.9524 38.9686 17.1898 39.4928H14.8112C15.0485 38.9686 15.1818 38.3876 15.1818 37.7758C15.1818 36.75 14.5829 35.6483 13.3508 34.4078C12.5546 33.6061 11.7635 33.0255 11.7302 33.0011L11.0043 32.4707L10.2784 33.0011C10.2451 33.0255 9.45399 33.6061 8.65776 34.4078C7.42576 35.6483 6.82679 36.75 6.82679 37.7758C6.82679 38.3876 6.96006 38.9686 7.19743 39.4928H0V41.9533H41.9933V39.4928H34.7958V39.4927ZM29.272 37.7757C29.272 37.3566 30.025 36.4152 30.9845 35.5749C31.1724 35.7394 31.3809 35.9315 31.5896 36.1416C32.4726 37.0306 32.7058 37.5992 32.7058 37.7757C32.7058 38.7224 31.9356 39.4927 30.9889 39.4927C30.0421 39.4927 29.272 38.7224 29.272 37.7757ZM19.2797 37.7757C19.2797 37.3566 20.0327 36.4152 20.9922 35.5749C21.1801 35.7394 21.3886 35.9315 21.5973 36.1416C22.4803 37.0306 22.7135 37.5992 22.7135 37.7757C22.7135 38.7224 21.9433 39.4927 20.9966 39.4927C20.0498 39.4927 19.2797 38.7224 19.2797 37.7757ZM9.28741 37.7757C9.28741 37.3566 10.0404 36.4152 11 35.5749C11.1879 35.7394 11.3963 35.9315 11.605 36.1416C12.488 37.0306 12.7213 37.5992 12.7213 37.7757C12.7213 38.7224 11.951 39.4927 11.0043 39.4927C10.0576 39.4927 9.28741 38.7224 9.28741 37.7757Z" fill="black"/>
<path d="M5.24917 25.9953C5.24917 28.616 7.38116 30.748 10.0017 30.748H31.9915C34.6121 30.748 36.7441 28.616 36.7441 25.9953V17.2239H41.7472V10.0973H0.246063V17.2239H5.24917V25.9953ZM36.7442 12.5578H39.2867V14.7634H36.7442V12.5578ZM7.70972 12.5578H34.2836V25.9953C34.2836 27.2592 33.2554 28.2874 31.9916 28.2874H10.0017C8.7379 28.2874 7.70972 27.2592 7.70972 25.9953V12.5578ZM2.70661 14.7634V12.5578H5.24917V14.7634H2.70661Z" fill="black"/>
<path d="M14.5411 5.62858C14.5411 5.40451 14.5702 5.35333 14.693 5.1377C14.8818 4.8061 15.1672 4.30489 15.1672 3.42943C15.1672 2.55396 14.8818 2.05275 14.693 1.72115C14.5703 1.50561 14.5411 1.45443 14.5411 1.23027V0H12.0806V1.23027C12.0806 2.10574 12.3659 2.60695 12.5547 2.93855C12.6774 3.15409 12.7066 3.20527 12.7066 3.42943C12.7066 3.65358 12.6775 3.70468 12.5547 3.92031C12.3659 4.25191 12.0806 4.75312 12.0806 5.62858V6.85885H14.5411V5.62858Z" fill="black"/>
<path d="M21.9139 5.62858C21.9139 5.40451 21.9431 5.35333 22.0658 5.1377C22.2546 4.8061 22.54 4.30489 22.54 3.42943C22.54 2.55396 22.2546 2.05275 22.0658 1.72115C21.9431 1.50561 21.9139 1.45443 21.9139 1.23027V0H19.4534V1.23027C19.4534 2.10574 19.7387 2.60695 19.9275 2.93855C20.0502 3.15409 20.0794 3.20527 20.0794 3.42943C20.0794 3.65358 20.0503 3.70468 19.9275 3.92031C19.7387 4.25191 19.4534 4.75312 19.4534 5.62858V6.85885H21.9139V5.62858Z" fill="black"/>
<path d="M29.2868 5.62858C29.2868 5.40451 29.316 5.35333 29.4387 5.1377C29.6275 4.8061 29.9129 4.30489 29.9129 3.42943C29.9129 2.55396 29.6275 2.05275 29.4387 1.72115C29.316 1.50561 29.2868 1.45443 29.2868 1.23027V0H26.8263V1.23027C26.8263 2.10574 27.1116 2.60695 27.3004 2.93855C27.4231 3.15409 27.4523 3.20527 27.4523 3.42943C27.4523 3.65358 27.4232 3.70468 27.3004 3.92031C27.1116 4.25191 26.8263 4.75312 26.8263 5.62858V6.85885H29.2868V5.62858Z" fill="black"/>
</svg>
